<svg width="21" height="22" viewBox="0 0 21 22" fill="none" xmlns="http://www.w3.org/2000/svg">
<g clip-path="url(#clip0_131_109)">
<path fill-rule="evenodd" clip-rule="evenodd" d="M10.4702 0.809677C7.98462 0.810967 5.58058 1.6913 3.68791 3.29325C1.79525 4.89521 0.537368 7.11433 0.139198 9.55381C-0.258973 11.9933 0.228526 14.4941 1.51453 16.609C2.80054 18.7238 4.80119 20.3149 7.15875 21.0978C7.67886 21.1943 7.87477 20.8719 7.87477 20.5978C7.87477 20.3237 7.86437 19.529 7.8609 18.6602C4.94825 19.2894 4.33279 17.4311 4.33279 17.4311C3.85775 16.2244 3.17119 15.9072 3.17119 15.9072C2.22112 15.2625 3.24228 15.2746 3.24228 15.2746C4.29465 15.3487 4.84771 16.3485 4.84771 16.3485C5.78045 17.9396 7.29744 17.4794 7.89384 17.2105C7.98746 16.5364 8.25966 16.0779 8.5596 15.8176C6.23294 15.5556 3.7884 14.6626 3.7884 10.6736C3.77398 9.63906 4.16007 8.63861 4.86678 7.87922C4.75929 7.61719 4.4004 6.55874 4.96906 5.12105C4.96906 5.12105 5.84806 4.84178 7.84877 6.18811C9.56486 5.72149 11.3755 5.72149 13.0915 6.18811C15.0905 4.84178 15.9678 5.12105 15.9678 5.12105C16.5382 6.5553 16.1793 7.61374 16.0718 7.87922C16.7807 8.63873 17.1676 9.64093 17.1519 10.677C17.1519 14.6747 14.7022 15.5556 12.372 15.8124C12.7465 16.1365 13.0811 16.7691 13.0811 17.7414C13.0811 19.1343 13.069 20.2548 13.069 20.5978C13.069 20.8754 13.258 21.1995 13.7885 21.0978C16.1463 20.3149 18.1472 18.7235 19.4332 16.6082C20.7191 14.493 21.2064 11.9918 20.8078 9.55211C20.4091 7.1124 19.1506 4.89326 17.2573 3.29158C15.364 1.6899 12.9595 0.810149 10.4736 0.809677H10.4702Z" fill="white"/>
<path d="M7.00424 17.8017C7.00424 17.8862 6.90716 17.9586 6.78233 17.9603C6.6575 17.962 6.55521 17.8931 6.55521 17.8086C6.55521 17.7242 6.6523 17.6518 6.77712 17.65C6.90195 17.6483 7.00424 17.7155 7.00424 17.8017Z" fill="white"/>
<path d="M7.80175 17.669C7.81735 17.7535 7.73066 17.8414 7.60584 17.8621C7.48101 17.8828 7.37178 17.8328 7.35618 17.75C7.34058 17.6673 7.43073 17.5776 7.55209 17.5552C7.67345 17.5328 7.78614 17.5845 7.80175 17.669Z" fill="white"/>
<path d="M6.14775 17.7431C6.12174 17.8241 6.00385 17.8603 5.88595 17.8259C5.76806 17.7914 5.69004 17.6949 5.71258 17.6121C5.73512 17.5294 5.85475 17.4914 5.97437 17.5294C6.094 17.5673 6.17028 17.6587 6.14775 17.7431Z" fill="white"/>
<path d="M5.3624 17.4052C5.30519 17.469 5.18903 17.4518 5.09368 17.3656C4.99833 17.2794 4.97578 17.1622 5.03299 17.1001C5.09021 17.0381 5.20637 17.0553 5.30519 17.1398C5.40401 17.2242 5.42308 17.3432 5.3624 17.4052Z" fill="white"/>
<path d="M4.80242 16.826C4.73827 16.8708 4.62904 16.826 4.56836 16.7364C4.55158 16.7203 4.53824 16.701 4.52912 16.6797C4.52001 16.6584 4.5153 16.6354 4.5153 16.6123C4.5153 16.5891 4.52001 16.5662 4.52912 16.5448C4.53824 16.5235 4.55158 16.5042 4.56836 16.4882C4.63251 16.4451 4.74174 16.4882 4.80242 16.5761C4.8631 16.664 4.86483 16.7812 4.80242 16.826Z" fill="white"/>
<path d="M4.38977 16.2279C4.35386 16.2458 4.31279 16.2509 4.27357 16.2421C4.23435 16.2333 4.19944 16.2112 4.17479 16.1796C4.10717 16.1072 4.0933 16.0072 4.14531 15.9624C4.19732 15.9176 4.29095 15.9382 4.35856 16.0106C4.42618 16.0831 4.44178 16.183 4.38977 16.2279Z" fill="white"/>
<path d="M3.965 15.7573C3.94246 15.809 3.85924 15.8245 3.79163 15.7883C3.72401 15.7521 3.67374 15.6849 3.69801 15.6314C3.72228 15.578 3.80377 15.5642 3.87138 15.6004C3.939 15.6366 3.99101 15.7055 3.965 15.7573Z" fill="white"/>
</g>
<defs>
<clipPath id="clip0_131_109">
<rect width="20.9399" height="20.9399" fill="white" transform="translate(0 0.373428)"/>
</clipPath>
</defs>
</svg>
