<svg width="21" height="21" viewBox="0 0 21 21" fill="none" xmlns="http://www.w3.org/2000/svg">
<g clip-path="url(#clip0_131_118)">
<path d="M20.9398 10.3797C20.9398 13.1537 20.4749 15.4038 19.9013 15.4038C19.3277 15.4038 18.863 13.1543 18.863 10.3797C18.863 7.6052 19.3279 5.3557 19.9013 5.3557C20.4747 5.3557 20.9398 7.605 20.9398 10.3797Z" fill="white"/>
<path d="M18.2899 10.3798C18.2899 13.4765 16.9679 15.9879 15.337 15.9879C13.7062 15.9879 12.3841 13.4765 12.3841 10.3798C12.3841 7.28299 13.706 4.77158 15.3368 4.77158C16.9677 4.77158 18.2897 7.28219 18.2897 10.3798" fill="white"/>
<path d="M11.8113 10.3798C11.8113 13.6697 9.16724 16.3367 5.90577 16.3367C2.64429 16.3367 0 13.6691 0 10.3798C0 7.09043 2.64409 4.42262 5.90577 4.42262C9.16744 4.42262 11.8113 7.08982 11.8113 10.3798Z" fill="white"/>
</g>
<defs>
<clipPath id="clip0_131_118">
<rect width="20.9399" height="20.9399" fill="white" transform="translate(0 0.0601501)"/>
</clipPath>
</defs>
</svg>
