<svg width="21" height="22" viewBox="0 0 21 22" fill="none" xmlns="http://www.w3.org/2000/svg">
<g clip-path="url(#clip0_131_107)">
<path fill-rule="evenodd" clip-rule="evenodd" d="M14.6957 6.39966C13.6147 5.36864 12.172 4.80696 10.6793 4.83004C7.94787 4.83004 5.62807 6.67279 4.80093 9.15417C4.36236 10.4545 4.36236 11.8626 4.80093 13.1629H4.80477C5.63574 15.6405 7.95171 17.4832 10.6832 17.4832C12.0931 17.4832 13.3036 17.1226 14.2418 16.4856V16.483C15.3459 15.752 16.0999 14.6018 16.3346 13.3014H10.6793V9.26965H20.5549C20.678 9.96982 20.7357 10.6854 20.7357 11.3971C20.7357 14.5816 19.5976 17.2739 17.6174 19.0974L17.6195 19.099C15.8845 20.6994 13.5031 21.6266 10.6793 21.6266C6.72063 21.6266 3.10049 19.3952 1.32313 15.8597C-0.16185 12.9013 -0.161847 9.41582 1.32314 6.4574C3.1005 2.91805 6.72063 0.686695 10.6793 0.686695C13.28 0.655918 15.7921 1.63309 17.6849 3.41045L14.6957 6.39966Z" fill="white"/>
</g>
<defs>
<clipPath id="clip0_131_107">
<rect width="20.9399" height="20.9399" fill="white" transform="translate(0 0.686714)"/>
</clipPath>
</defs>
</svg>
