<svg width="21" height="21" viewBox="0 0 21 21" fill="none" xmlns="http://www.w3.org/2000/svg">
<g clip-path="url(#clip0_131_105)">
<path d="M6.58747 18.9768C14.4874 18.9768 18.8095 12.4302 18.8095 6.75478C18.8095 6.57073 18.8054 6.3826 18.7972 6.19856C19.638 5.59052 20.3636 4.83738 20.9399 3.97452C20.1568 4.32291 19.3254 4.55044 18.4741 4.64934C19.3705 4.11203 20.0417 3.26795 20.3632 2.27356C19.5199 2.77332 18.5977 3.12586 17.6361 3.31606C16.9882 2.62762 16.1315 2.17179 15.1986 2.01904C14.2656 1.8663 13.3083 2.02515 12.4747 2.47104C11.6411 2.91692 10.9775 3.625 10.5867 4.48581C10.1959 5.34662 10.0995 6.31221 10.3125 7.23328C8.60497 7.1476 6.93453 6.70403 5.40945 5.93135C3.88437 5.15866 2.53869 4.0741 1.45966 2.74798C0.911232 3.69353 0.743414 4.81242 0.990308 5.87725C1.2372 6.94208 1.88028 7.87295 2.78885 8.48068C2.10675 8.45902 1.43959 8.27537 0.842502 7.94491V7.99808C0.841891 8.99036 1.18493 9.95223 1.81331 10.7202C2.44169 11.4881 3.31663 12.0148 4.2894 12.2106C3.65754 12.3835 2.99438 12.4087 2.35123 12.2842C2.62573 13.1376 3.1598 13.8839 3.87891 14.4192C4.59802 14.9544 5.46628 15.2518 6.36253 15.2698C4.84097 16.465 2.9614 17.1133 1.02654 17.1102C0.683413 17.1097 0.340621 17.0886 0 17.0472C1.9656 18.3082 4.25213 18.978 6.58747 18.9768Z" fill="white"/>
</g>
<defs>
<clipPath id="clip0_131_105">
<rect width="20.9399" height="20.9399" fill="white"/>
</clipPath>
</defs>
</svg>
